# xmcd CD database file
#
# Track frame offsets:
#	150
#	10112
#	21995
#	34477
#	47105
#	59647
#	70432
#	80565
#	93305
#	104967
#	118770
#	130580
#	141215
#	158437
#	171600
#	183565
#	195077
#	205920
#	216885
#	228567
#	239912
#	253715
#	269715
#	282332
#
# Disc length: 3907 seconds
#
# Revision: 2
# Processed by: cddbd v1.5.2PL0 Copyright (c) Steve Scherf et al.
# Submitted via: jetAudio 7
#
DISCID=7b0f4118
DTITLE=Barbara Ray and Lance James - (001) After The Fire Is Gone
DYEAR=1900
DGENRE=CD No 001
TTITLE0=After The Fire Is Gone
TTITLE1=Say Forever You'll Be Mine
TTITLE2=Stand Beside Me
TTITLE3=Return To Me
TTITLE4=God Made Love
TTITLE5=This Growing Old Together Love We Share
TTITLE6=We'll Sing In The Sunshine
TTITLE7=Tomorrow Is Forever
TTITLE8=Born Believer
TTITLE9=Rings Of Gold
TTITLE10=I'm Leaving It Up To You
TTITLE11=Till I Can't Take It Anymore
TTITLE12=Welcome To My World
TTITLE13=I Love You Because
TTITLE14=How's The World Treating You
TTITLE15=Just Enough To Make Me Want It All
TTITLE16=Walk Right Back
TTITLE17=That's All I Want From You
TTITLE18=Is Forever Longer Than Always
TTITLE19=My Heart Cries For You
TTITLE20=Let It Be Me
TTITLE21=Be Your Love
TTITLE22=Even The Bad Times Are Good
TTITLE23=Burning Bridges
EXTD=
EXTT0=
EXTT1=
EXTT2=
EXTT3=
EXTT4=
EXTT5=
EXTT6=
EXTT7=
EXTT8=
EXTT9=
EXTT10=
EXTT11=
EXTT12=
EXTT13=
EXTT14=
EXTT15=
EXTT16=
EXTT17=
EXTT18=
EXTT19=
EXTT20=
EXTT21=
EXTT22=
EXTT23=
PLAYORDER=
